<svg width="40" height="10" viewBox="0 0 40 10" fill="none" xmlns="http://www.w3.org/2000/svg">
<path d="M3.516 9C3.092 9 2.72 8.936 2.4 8.808C2.088 8.672 1.844 8.452 1.668 8.148C1.492 7.836 1.404 7.412 1.404 6.876V4.308H0.372V2.952H1.404L1.584 1.308H3.024V2.952H4.62V4.308H3.024V6.9C3.024 7.172 3.084 7.36 3.204 7.464C3.324 7.568 3.528 7.62 3.816 7.62H4.608V9H3.516ZM7.60341 9L5.38341 2.952H7.08741L8.58741 7.476L10.0874 2.952H11.7794L9.57141 9H7.60341Z" fill="currentColor"/>
<path d="M12.8046 9V0.599999H14.4246V7.74H18.1086V9H12.8046ZM22.0347 9.144C21.4587 9.144 20.9387 9.012 20.4747 8.748C20.0187 8.476 19.6547 8.104 19.3827 7.632C19.1187 7.152 18.9867 6.604 18.9867 5.988C18.9867 5.356 19.1187 4.804 19.3827 4.332C19.6547 3.852 20.0227 3.48 20.4867 3.216C20.9507 2.944 21.4707 2.808 22.0467 2.808C22.6307 2.808 23.1507 2.944 23.6067 3.216C24.0707 3.48 24.4347 3.852 24.6987 4.332C24.9707 4.804 25.1067 5.352 25.1067 5.976C25.1067 6.6 24.9707 7.152 24.6987 7.632C24.4347 8.104 24.0707 8.476 23.6067 8.748C23.1427 9.012 22.6187 9.144 22.0347 9.144ZM22.0347 7.74C22.3067 7.74 22.5467 7.676 22.7547 7.548C22.9707 7.42 23.1387 7.224 23.2587 6.96C23.3867 6.696 23.4507 6.368 23.4507 5.976C23.4507 5.584 23.3867 5.26 23.2587 5.004C23.1387 4.74 22.9707 4.544 22.7547 4.416C22.5467 4.28 22.3107 4.212 22.0467 4.212C21.7907 4.212 21.5547 4.28 21.3387 4.416C21.1227 4.544 20.9507 4.74 20.8227 5.004C20.7027 5.26 20.6427 5.584 20.6427 5.976C20.6427 6.368 20.7027 6.696 20.8227 6.96C20.9507 7.224 21.1187 7.42 21.3267 7.548C21.5427 7.676 21.7787 7.74 22.0347 7.74ZM29.4309 9.144C28.8229 9.144 28.2829 9.008 27.8109 8.736C27.3389 8.464 26.9709 8.092 26.7069 7.62C26.4429 7.148 26.3109 6.608 26.3109 6C26.3109 5.376 26.4429 4.828 26.7069 4.356C26.9709 3.876 27.3389 3.5 27.8109 3.228C28.2829 2.948 28.8229 2.808 29.4309 2.808C30.2069 2.808 30.8589 3.012 31.3869 3.42C31.9149 3.828 32.2509 4.388 32.3949 5.1H30.6789C30.6069 4.82 30.4549 4.6 30.2229 4.44C29.9989 4.28 29.7309 4.2 29.4189 4.2C29.1389 4.2 28.8869 4.272 28.6629 4.416C28.4469 4.552 28.2749 4.756 28.1469 5.028C28.0269 5.292 27.9669 5.608 27.9669 5.976C27.9669 6.256 28.0029 6.508 28.0749 6.732C28.1469 6.948 28.2469 7.136 28.3749 7.296C28.5029 7.448 28.6549 7.564 28.8309 7.644C29.0149 7.724 29.2109 7.764 29.4189 7.764C29.6269 7.764 29.8149 7.728 29.9829 7.656C30.1589 7.584 30.3069 7.484 30.4269 7.356C30.5469 7.22 30.6309 7.056 30.6789 6.864H32.3949C32.2509 7.56 31.9109 8.116 31.3749 8.532C30.8469 8.94 30.1989 9.144 29.4309 9.144ZM36.648 9.144C36.072 9.144 35.552 9.012 35.088 8.748C34.632 8.476 34.268 8.104 33.996 7.632C33.732 7.152 33.6 6.604 33.6 5.988C33.6 5.356 33.732 4.804 33.996 4.332C34.268 3.852 34.636 3.48 35.1 3.216C35.564 2.944 36.084 2.808 36.66 2.808C37.244 2.808 37.764 2.944 38.22 3.216C38.684 3.48 39.048 3.852 39.312 4.332C39.584 4.804 39.72 5.352 39.72 5.976C39.72 6.6 39.584 7.152 39.312 7.632C39.048 8.104 38.684 8.476 38.22 8.748C37.756 9.012 37.232 9.144 36.648 9.144ZM36.648 7.74C36.92 7.74 37.16 7.676 37.368 7.548C37.584 7.42 37.752 7.224 37.872 6.96C38 6.696 38.064 6.368 38.064 5.976C38.064 5.584 38 5.26 37.872 5.004C37.752 4.74 37.584 4.544 37.368 4.416C37.16 4.28 36.924 4.212 36.66 4.212C36.404 4.212 36.168 4.28 35.952 4.416C35.736 4.544 35.564 4.74 35.436 5.004C35.316 5.26 35.256 5.584 35.256 5.976C35.256 6.368 35.316 6.696 35.436 6.96C35.564 7.224 35.732 7.42 35.94 7.548C36.156 7.676 36.392 7.74 36.648 7.74Z" fill="#DD2121"/>
</svg>
